<svg width="50" height="50" viewBox="0 0 50 50" fill="none" xmlns="http://www.w3.org/2000/svg">
<path d="M45 21.2501H25.4167V28.9584H36.875C36.6667 30.8334 35.4167 33.7501 32.7083 35.6251C31.0417 36.8751 28.5417 37.7084 25.4167 37.7084C20 37.7084 15.2083 34.1667 13.5417 28.9584C13.125 27.7084 12.9167 26.2501 12.9167 24.7917C12.9167 23.3334 13.125 21.8751 13.5417 20.6251C13.75 20.2084 13.75 19.7917 13.9583 19.5834C15.8333 15.2084 20.2083 12.0834 25.4167 12.0834C29.375 12.0834 31.875 13.7501 33.5417 15.2084L39.375 9.37508C35.8333 6.25008 31.0417 4.16675 25.4167 4.16675C17.2917 4.16675 10.2083 8.75008 6.875 15.6251C5.41667 18.5417 4.58333 21.6667 4.58333 25.0001C4.58333 28.3334 5.41667 31.4584 6.875 34.3751C10.2083 41.2501 17.2917 45.8334 25.4167 45.8334C31.0417 45.8334 35.8333 43.9584 39.1667 40.8334C43.125 37.2918 45.4167 31.8751 45.4167 25.4167C45.4167 23.7501 45.2083 22.5001 45 21.2501Z" stroke="#112D4E" stroke-width="1.5" stroke-miterlimit="10" stroke-linecap="round" stroke-linejoin="round"/>
</svg>
